HIERARCHY
ROOT Hips
{
	OFFSET 0.00000 0.00000 0.00000
	CHANNELS 6 Xposition Yposition Zposition Zrotation Yrotation Xrotation 
	JOINT LHipJoint
	{
		OFFSET 0 0 0
		CHANNELS 3 Zrotation Yrotation Xrotation
		JOINT LeftUpLeg
		{
			OFFSET 1.17584 -1.63585 1.00361
			CHANNELS 3 Zrotation Yrotation Xrotation
			JOINT LeftLeg
			{
				OFFSET 2.23889 -6.15131 0.00000
				CHANNELS 3 Zrotation Yrotation Xrotation
				JOINT LeftFoot
				{
					OFFSET 2.65161 -7.28525 0.00000
					CHANNELS 3 Zrotation Yrotation Xrotation
					JOINT LeftToeBase
					{
						OFFSET 0.24898 -0.68407 1.57235
						CHANNELS 3 Zrotation Yrotation Xrotation
						End Site
						{
							OFFSET 0.00000 -0.00000 0.85838
						}
					}
				}
			}
		}
	}
	JOINT RHipJoint
	{
		OFFSET 0 0 0
		CHANNELS 3 Zrotation Yrotation Xrotation
		JOINT RightUpLeg
		{
			OFFSET -1.15592 -1.63585 1.00361
			CHANNELS 3 Zrotation Yrotation Xrotation
			JOINT RightLeg
			{
				OFFSET -2.34071 -6.43104 0.00000
				CHANNELS 3 Zrotation Yrotation Xrotation
				JOINT RightFoot
				{
					OFFSET -2.59113 -7.11908 0.00000
					CHANNELS 3 Zrotation Yrotation Xrotation
					JOINT RightToeBase
					{
						OFFSET -0.17867 -0.49089 1.70981
						CHANNELS 3 Zrotation Yrotation Xrotation
						End Site
						{
							OFFSET -0.00000 -0.00000 0.89861
						}
					}
				}
			}
		}
	}
	JOINT LowerBack
	{
		OFFSET 0 0 0
		CHANNELS 3 Zrotation Yrotation Xrotation
		JOINT Spine
		{
			OFFSET -0.02255 1.90764 -0.16605
			CHANNELS 3 Zrotation Yrotation Xrotation
			JOINT Spine1
			{
				OFFSET -0.00365 1.92150 -0.04898
				CHANNELS 3 Zrotation Yrotation Xrotation
				JOINT Neck
				{
					OFFSET 0 0 0
					CHANNELS 3 Zrotation Yrotation Xrotation
					JOINT Neck1
					{
						OFFSET 0.00372 1.59170 0.08694
						CHANNELS 3 Zrotation Yrotation Xrotation
						JOINT Head
						{
							OFFSET 0.12558 1.58643 -0.08078
							CHANNELS 3 Zrotation Yrotation Xrotation
							End Site
							{
								OFFSET 0.04211 1.60835 -0.03803
							}
						}
					}
				}
				JOINT LeftShoulder
				{
					OFFSET 0 0 0
					CHANNELS 3 Zrotation Yrotation Xrotation
					JOINT LeftArm
					{
						OFFSET 3.69324 0.96316 0.19077
						CHANNELS 3 Zrotation Yrotation Xrotation
						JOINT LeftForeArm
						{
							OFFSET 4.87796 -0.00000 -0.00000
							CHANNELS 3 Zrotation Yrotation Xrotation
							JOINT LeftHand
							{
								OFFSET 3.23169 -0.00000 0.00000
								CHANNELS 3 Zrotation Yrotation Xrotation
								JOINT LeftFingerBase
								{
									OFFSET 0 0 0
									CHANNELS 3 Zrotation Yrotation Xrotation
									JOINT LeftHandIndex1
									{
										OFFSET 0.73132 -0.00000 0.00000
										CHANNELS 3 Zrotation Yrotation Xrotation
										End Site
										{
											OFFSET 0.58961 -0.00000 0.00000
										}
									}
								}
								JOINT LThumb
								{
									OFFSET 0 0 0
									CHANNELS 3 Zrotation Yrotation Xrotation
									End Site
									{
										OFFSET 0.59861 -0.00000 0.59861
									}
								}
							}
						}
					}
				}
				JOINT RightShoulder
				{
					OFFSET 0 0 0
					CHANNELS 3 Zrotation Yrotation Xrotation
					JOINT RightArm
					{
						OFFSET -3.66103 0.75145 0.08281
						CHANNELS 3 Zrotation Yrotation Xrotation
						JOINT RightForeArm
						{
							OFFSET -4.91430 -0.00000 0.00000
							CHANNELS 3 Zrotation Yrotation Xrotation
							JOINT RightHand
							{
								OFFSET -3.29093 -0.00000 0.00000
								CHANNELS 3 Zrotation Yrotation Xrotation
								JOINT RightFingerBase
								{
									OFFSET 0 0 0
									CHANNELS 3 Zrotation Yrotation Xrotation
									JOINT RightHandIndex1
									{
										OFFSET -0.54512 -0.00000 0.00000
										CHANNELS 3 Zrotation Yrotation Xrotation
										End Site
										{
											OFFSET -0.43949 -0.00000 0.00000
										}
									}
								}
								JOINT RThumb
								{
									OFFSET 0 0 0
									CHANNELS 3 Zrotation Yrotation Xrotation
									End Site
									{
										OFFSET -0.44620 -0.00000 0.44620
									}
								}
							}
						}
					}
				}
			}
		}
	}
}
MOTION
Frames: 15
Frame Time: .0083333
6.5186 15.9653 0.7784 0 0 0 0 0 0 -21 0 0 0 0 0 0 0 0 0 0 0 0 0 0 21 0 0 0 0 0 0 0 0 0 0 0 0 0 0 0 0 0 0 0 0 0 0 -16 0 0 21 0 0 11 0 0 0 -8 0 0 0 0 0 0 0 0 0 0 0 0 0 0 0 0 0 0 0 0 8 0 0 0 0 0 0 0 0 0 0 0 0 0 0 0 0 0
6.5186 15.9653 0.7784 83.8496 -86.8920 -85.9832 0.0000 0.0000 0.0000 -15.2239 -2.9648 -14.6800 5.0878 13.4820 41.2008 2.7540 5.5529 -33.6698 2.5117 -9.8591 -28.5215 0.0000 0.0000 0.0000 8.6674 7.8413 -12.9395 -5.8015 -14.2332 44.1799 -1.8416 -7.6338 -29.3337 -0.1353 2.3708 -6.5314 -1.2863 0.9210 -8.6855 -3.1369 1.5908 3.3250 -2.3537 0.7819 8.4669 1.6629 -0.9973 -3.3087 1.2270 -1.6919 10.2364 0.0364 -0.7652 3.9142 -0.0000 0.0000 0.0000 -80.0639 -3.7952 39.0359 31.6929 -42.3010 -12.5337 -0.0000 -0.0000 9.1897 37.1627 -24.1268 -17.2153 -7.1250 0.0000 -0.0000 4.7011 0.7300 -4.6566 -0.0000 0.0000 0.0000 88.8970 0.4011 35.0680 -32.5422 42.9752 -13.1090 0.0000 0.0000 14.9026 -16.9079 -44.4693 12.0211 7.1250 -0.0000 -0.0000 36.0318 -72.9989 -24.7675
6.5147 15.9650 0.7787 83.5400 -86.8718 -85.6087 0.0000 0.0000 0.0000 -15.2495 -3.0037 -14.7014 5.0833 13.4770 41.1813 2.7833 5.5367 -33.8239 2.5970 -10.0122 -29.0162 0.0000 0.0000 0.0000 8.6446 7.8714 -12.9729 -5.8032 -14.2349 44.1867 -1.8477 -7.7219 -29.4275 -0.1432 2.4388 -6.7201 -1.3018 0.9094 -8.7993 -3.1376 1.5806 3.3042 -2.3463 0.7762 8.5100 1.3704 -0.9911 -3.2334 1.6844 -1.6984 9.9799 0.2397 -0.7619 3.8162 -0.0000 0.0000 0.0000 -80.0979 -3.8042 39.0316 31.5010 -42.1457 -12.4047 -0.0000 -0.0000 9.4333 37.4053 -24.1640 -17.3818 -7.1250 0.0000 -0.0000 4.8372 0.6139 -4.8023 -0.0000 0.0000 0.0000 88.9532 0.3021 35.0575 -32.6095 43.0278 -13.1549 0.0000 0.0000 14.8620 -22.6021 -40.5937 15.1568 7.1250 -0.0000 -0.0000 21.4268 -71.8397 -13.8690
6.5146 15.9646 0.7778 83.6477 -86.8110 -85.6960 0.0000 0.0000 0.0000 -15.3091 -3.0559 -14.6982 5.0811 13.4745 41.1718 2.7789 5.5270 -33.7949 2.5253 -9.8838 -28.6012 0.0000 0.0000 0.0000 8.5764 7.9105 -12.9903 -5.8046 -14.2363 44.1923 -1.8708 -7.5893 -29.4954 -0.1247 2.2760 -6.2691 -1.4087 0.9010 -8.7898 -3.1314 1.5805 3.2839 -2.2793 0.7699 8.4794 1.1232 -1.0134 -3.2260 1.9945 -1.7381 9.8772 0.3838 -0.7784 3.7848 -0.0000 0.0000 0.0000 -80.1155 -3.7209 39.0627 31.4932 -42.1394 -12.3994 -0.0000 -0.0000 9.4742 37.2651 -23.9721 -17.1774 -7.1250 0.0000 -0.0000 4.7932 0.8771 -4.7359 -0.0000 0.0000 0.0000 88.9068 0.2282 35.0919 -32.6700 43.0749 -13.1962 0.0000 0.0000 14.7730 -27.2549 -36.4843 17.0301 7.1250 -0.0000 -0.0000 9.7137 -69.5133 -5.7186
6.5159 15.9649 0.7774 84.4472 -86.9029 -86.4840 0.0000 0.0000 0.0000 -15.2059 -3.0837 -14.6864 5.0795 13.4728 41.1651 2.7960 5.4053 -33.8321 2.4416 -9.7310 -28.1100 0.0000 0.0000 0.0000 8.6967 8.0233 -12.9865 -5.8059 -14.2376 44.1978 -1.8638 -7.6305 -29.4753 -0.1236 2.2667 -6.2433 -1.3802 0.9009 -8.7985 -3.0815 1.5752 3.3093 -2.2431 0.7678 8.5108 1.1872 -1.0799 -3.4925 1.8786 -1.8300 10.0463 0.3287 -0.8227 3.8953 -0.0000 0.0000 0.0000 -80.0953 -3.7615 39.0873 31.4844 -42.1323 -12.3936 -0.0000 -0.0000 9.3425 36.8695 -23.9362 -16.9242 -7.1250 0.0000 -0.0000 4.5654 1.0363 -4.4965 -0.0000 0.0000 0.0000 88.8523 0.3053 35.1889 -32.6381 43.0500 -13.1744 0.0000 0.0000 14.5102 -31.7335 -31.5266 17.9196 7.1250 -0.0000 -0.0000 -0.1196 -65.7814 0.0600
6.5159 15.9651 0.7770 84.9506 -86.9073 -86.9695 0.0000 0.0000 0.0000 -15.2043 -3.1208 -14.6788 5.0767 13.4696 41.1528 2.8033 5.3712 -33.8558 2.4046 -9.6623 -27.8900 0.0000 0.0000 0.0000 8.7042 8.0637 -13.0069 -5.8081 -14.2398 44.2066 -1.8594 -7.6657 -29.4686 -0.1288 2.3138 -6.3738 -1.4026 0.9053 -8.8030 -3.0743 1.5837 3.3132 -2.2214 0.7705 8.5171 1.2072 -1.1373 -3.6931 1.8714 -1.9129 10.1177 0.3178 -0.8607 3.9603 -0.0000 -0.0000 0.0000 -80.0657 -3.7679 39.1282 31.4567 -42.1097 -12.3750 -0.0000 -0.0000 9.3146 36.6490 -23.9734 -16.8197 -7.1250 0.0000 -0.0000 4.4268 1.0587 -4.3573 -0.0000 -0.0000 0.0000 88.8559 0.3090 35.2155 -32.6340 43.0468 -13.1716 0.0000 0.0000 14.3417 -34.5742 -27.8558 17.8497 7.1250 -0.0000 -0.0000 -5.2700 -62.5984 2.2567
6.5161 15.9656 0.7767 85.4998 -86.8993 -87.5043 0.0000 0.0000 0.0000 -15.2193 -3.1527 -14.6729 5.0739 13.4665 41.1410 2.8050 5.3773 -33.8686 2.3807 -9.6177 -27.7475 0.0000 0.0000 0.0000 8.6939 8.0860 -13.0320 -5.8103 -14.2419 44.2154 -1.8529 -7.6982 -29.4469 -0.1365 2.3809 -6.5595 -1.4285 0.9140 -8.7982 -3.0782 1.5986 3.3192 -2.2087 0.7763 8.5206 1.2609 -1.1947 -3.9135 1.8360 -1.9963 10.2003 0.2912 -0.8987 4.0327 -0.0000 -0.0000 0.0000 -80.0167 -3.7804 39.1761 31.4428 -42.0984 -12.3657 -0.0000 -0.0000 9.2709 36.4304 -24.0551 -16.7441 -7.1250 0.0000 -0.0000 4.2805 1.0294 -4.2148 -0.0000 -0.0000 0.0000 88.8777 0.3198 35.2314 -32.6151 43.0321 -13.1586 0.0000 0.0000 14.1809 -36.4139 -25.1259 17.3910 7.1250 -0.0000 -0.0000 -8.1397 -60.0282 2.9967
6.5160 15.9663 0.7763 85.9718 -86.8847 -87.9609 0.0000 0.0000 0.0000 -15.2434 -3.1762 -14.6692 5.0694 13.4615 41.1216 2.8024 5.4311 -33.8793 2.3853 -9.6263 -27.7749 0.0000 0.0000 0.0000 8.6740 8.0985 -13.0588 -5.8126 -14.2443 44.2249 -1.8480 -7.7203 -29.4286 -0.1436 2.4418 -6.7284 -1.4498 0.9248 -8.7937 -3.0912 1.6162 3.3230 -2.2078 0.7839 8.5226 1.2666 -1.2360 -4.0685 1.8857 -2.0597 10.2119 0.3027 -0.9259 4.0685 0.0000 -0.0000 0.0000 -79.9545 -3.7926 39.2250 31.4288 -42.0871 -12.3563 -0.0000 -0.0000 9.2405 36.2740 -24.1572 -16.7167 -7.1250 0.0000 -0.0000 4.1674 0.9585 -4.1080 0.0000 -0.0000 0.0000 88.9164 0.3259 35.2342 -32.5897 43.0123 -13.1414 0.0000 0.0000 14.0688 -37.4149 -23.4190 16.9113 7.1250 -0.0000 -0.0000 -9.5403 -58.3300 3.1291
6.5157 15.9671 0.7759 86.2868 -86.8641 -88.2589 0.0000 0.0000 0.0000 -15.2743 -3.1971 -14.6696 5.0646 13.4562 41.1010 2.7961 5.5153 -33.8846 2.4057 -9.6644 -27.8967 0.0000 0.0000 0.0000 8.6462 8.1052 -13.0835 -5.8141 -14.2457 44.2310 -1.8473 -7.7195 -29.4234 -0.1470 2.4704 -6.8075 -1.4679 0.9346 -8.7892 -3.1108 1.6324 3.3206 -2.2159 0.7912 8.5180 1.1851 -1.2547 -4.1132 2.0687 -2.0939 10.1125 0.3761 -0.9379 4.0457 0.0000 -0.0000 0.0000 -79.8875 -3.7942 39.2687 31.4131 -42.0743 -12.3458 -0.0000 -0.0000 9.2344 36.1914 -24.2394 -16.7194 -7.1250 0.0000 -0.0000 4.1021 0.8888 -4.0484 0.0000 -0.0000 0.0000 88.9634 0.3190 35.2242 -32.5656 42.9935 -13.1249 0.0000 0.0000 14.0347 -37.8032 -22.5639 16.5769 7.1250 -0.0000 -0.0000 -10.0548 -57.4361 3.0831
6.5149 15.9681 0.7756 86.4627 -86.8453 -88.4125 0.0000 0.0000 0.0000 -15.3020 -3.2178 -14.6757 5.0602 13.4512 41.0820 2.7898 5.6000 -33.8902 2.4273 -9.7045 -28.0250 0.0000 0.0000 0.0000 8.6189 8.1108 -13.1071 -5.8142 -14.2458 44.2314 -1.8530 -7.6792 -29.4359 -0.1431 2.4383 -6.7186 -1.4792 0.9412 -8.7878 -3.1317 1.6432 3.3086 -2.2301 0.7963 8.5050 1.0103 -1.2496 -4.0446 2.3836 -2.0965 9.9098 0.5120 -0.9340 3.9669 0.0000 -0.0000 0.0000 -79.8227 -3.7794 39.3029 31.3936 -42.0584 -12.3327 -0.0000 -0.0000 9.2453 36.1601 -24.2589 -16.7132 -7.1250 0.0000 -0.0000 4.0796 0.8757 -4.0270 0.0000 -0.0000 0.0000 89.0071 0.2959 35.2128 -32.5476 42.9794 -13.1126 0.0000 0.0000 14.0724 -37.7342 -22.4319 16.4511 7.1250 -0.0000 -0.0000 -9.9776 -57.2649 3.0178
6.5139 15.9691 0.7755 86.5674 -86.8423 -88.4881 0.0000 0.0000 0.0000 -15.3104 -3.2416 -14.6874 5.0568 13.4475 41.0677 2.7871 5.6606 -33.9045 2.4420 -9.7318 -28.1124 0.0000 0.0000 0.0000 8.6100 8.1249 -13.1290 -5.8125 -14.2442 44.2245 -1.8625 -7.6198 -29.4604 -0.1340 2.3592 -6.4995 -1.4784 0.9414 -8.7933 -3.1454 1.6438 3.2888 -2.2448 0.7970 8.4873 0.7750 -1.2241 -3.8969 2.7735 -2.0702 9.6401 0.6847 -0.9167 3.8512 0.0000 -0.0000 0.0000 -79.7696 -3.7486 39.3153 31.3719 -42.0406 -12.3181 -0.0000 -0.0000 9.2701 36.1437 -24.2004 -16.6680 -7.1250 0.0000 -0.0000 4.0813 0.9471 -4.0236 0.0000 -0.0000 0.0000 89.0362 0.2633 35.2159 -32.5363 42.9705 -13.1049 0.0000 0.0000 14.1592 -37.6293 -22.4244 16.3875 7.1250 -0.0000 -0.0000 -9.8528 -57.2300 2.9712
6.5128 15.9702 0.7755 86.6793 -86.8610 -88.5633 0.0000 0.0000 0.0000 -15.2936 -3.2726 -14.7040 5.0549 13.4454 41.0594 2.7903 5.6800 -33.9312 2.4420 -9.7316 -28.1119 0.0000 0.0000 0.0000 8.6266 8.1481 -13.1530 -5.8091 -14.2407 44.2106 -1.8696 -7.5773 -29.4804 -0.1252 2.2814 -6.2840 -1.4594 0.9380 -8.8056 -3.1507 1.6371 3.2642 -2.2619 0.7950 8.4683 0.5603 -1.1929 -3.7408 3.1259 -2.0333 9.3693 0.8410 -0.8956 3.7332 -0.0000 0.0000 0.0000 -79.7296 -3.7108 39.3066 31.3490 -42.0220 -12.3028 -0.0000 -0.0000 9.3033 36.1077 -24.1044 -16.5885 -7.1250 0.0000 -0.0000 4.0788 1.0670 -4.0123 -0.0000 0.0000 0.0000 89.0543 0.2287 35.2304 -32.5310 42.9665 -13.1013 0.0000 0.0000 14.2532 -37.5420 -22.5038 16.3905 7.1250 -0.0000 -0.0000 -9.7449 -57.3005 2.9549
6.5117 15.9714 0.7758 86.8422 -86.8952 -88.6834 0.0000 0.0000 0.0000 -15.2596 -3.3115 -14.7239 5.0541 13.4445 41.0561 2.7983 5.6709 -33.9713 2.4305 -9.7104 -28.0440 0.0000 0.0000 0.0000 8.6599 8.1719 -13.1816 -5.8045 -14.2362 44.1920 -1.8717 -7.5618 -29.4846 -0.1193 2.2268 -6.1328 -1.4180 0.9377 -8.8233 -3.1564 1.6321 3.2370 -2.2918 0.7951 8.4503 0.4360 -1.1709 -3.6342 3.3632 -2.0065 9.1525 0.9423 -0.8803 3.6416 -0.0000 0.0000 0.0000 -79.6884 -3.6757 39.2945 31.3263 -42.0034 -12.2876 -0.0000 -0.0000 9.3281 36.0400 -24.0104 -16.4922 -7.1250 0.0000 -0.0000 4.0568 1.1938 -3.9815 -0.0000 0.0000 0.0000 89.0784 0.1941 35.2409 -32.5276 42.9638 -13.0990 0.0000 0.0000 14.3260 -37.4933 -22.6103 16.4327 7.1250 -0.0000 -0.0000 -9.6816 -57.4122 2.9616
6.5105 15.9726 0.7761 87.0554 -86.9323 -88.8519 0.0000 0.0000 0.0000 -15.2234 -3.3531 -14.7455 5.0539 13.4442 41.0550 2.8063 5.6641 -34.0120 2.4154 -9.6825 -27.9546 0.0000 0.0000 0.0000 8.6951 8.1887 -13.2134 -5.7996 -14.2313 44.1719 -1.8690 -7.5662 -29.4697 -0.1159 2.1945 -6.0434 -1.3658 0.9425 -8.8435 -3.1677 1.6331 3.2110 -2.3328 0.7988 8.4359 0.4266 -1.1625 -3.6045 3.4642 -1.9969 9.0088 0.9773 -0.8734 3.5872 0.0000 -0.0000 0.0000 -79.6379 -3.6441 39.2893 31.3118 -41.9916 -12.2779 -0.0000 -0.0000 9.3386 35.9561 -23.9252 -16.3924 -7.1250 0.0000 -0.0000 4.0233 1.3149 -3.9397 0.0000 -0.0000 0.0000 89.1159 0.1611 35.2428 -32.5189 42.9570 -13.0931 0.0000 0.0000 14.3675 -37.4526 -22.6811 16.4559 7.1250 -0.0000 -0.0000 -9.6293 -57.4843 2.9622
6.5093 15.9738 0.7763 87.3630 -86.9583 -89.1124 0.0000 0.0000 0.0000 -15.1986 -3.3883 -14.7726 5.0534 13.4437 41.0529 2.8117 5.6722 -34.0453 2.4029 -9.6592 -27.8801 0.0000 0.0000 0.0000 8.7167 8.2006 -13.2512 -5.7950 -14.2267 44.1533 -1.8631 -7.5791 -29.4394 -0.1145 2.1814 -6.0072 -1.3227 0.9518 -8.8693 -3.1852 1.6418 3.1882 -2.3739 0.8058 8.4284 0.5008 -1.1668 -3.6367 3.4640 -2.0038 8.9203 0.9634 -0.8746 3.5616 0.0000 -0.0000 0.0000 -79.5799 -3.6192 39.2939 31.3059 -41.9868 -12.2740 -0.0000 -0.0000 9.3396 35.8840 -23.8598 -16.3114 -7.1250 0.0000 -0.0000 3.9929 1.4101 -3.9030 0.0000 -0.0000 0.0000 89.1642 0.1285 35.2409 -32.5040 42.9453 -13.0829 0.0000 0.0000 14.3658 -37.4061 -22.6841 16.4316 7.1250 -0.0000 -0.0000 -9.5734 -57.4761 2.9429
